<?xml version="1.0" encoding="utf-8"?>
<!-- Generator: Adobe Illustrator 23.0.1, SVG Export Plug-In . SVG Version: 6.00 Build 0)  -->
<svg version="1.1" id="Layer_1" xmlns="http://www.w3.org/2000/svg" xmlns:xlink="http://www.w3.org/1999/xlink" x="0px" y="0px"
	 viewBox="0 0 434.8 435.8" style="enable-background:new 0 0 434.8 435.8;" xml:space="preserve">
<style type="text/css">
	.st0{fill:#B6BCC9;}
</style>
<g>
	<g>
		<path class="st0" d="M426.5,281.7c-8.2,26.9-21.7,52.2-39.4,73.9c-17.7,21.8-39.8,40.1-64.6,53.6c-24.8,13.5-52.3,22.3-80.5,25.3
			c-28.2,3.1-57,0.7-84.5-7.3c-27.4-7.9-53.4-21.3-75.8-39.2c-22.4-17.9-41.3-40.4-55.1-65.8S4,268.9,1.1,240.1
			c-1.5-14.4-1.5-28.9-0.1-43.4c1.5-14.4,4.4-28.7,8.5-42.5c4.3-13.8,9.9-27.3,16.7-40c6.8-12.8,15-24.8,24.3-35.9
			C69.1,56,92.1,37.6,117.7,24.4S171.5,3,200.1,0.7c28.6-2.4,57.7,1.1,84.7,10c27.2,8.8,52.5,22.9,74,41.3
			c21.7,18.4,39.5,41,52.5,66.1s21.1,52.6,23.5,80.6C437.8,226.4,434.8,254.9,426.5,281.7z M426.5,281.7c4-13.5,6.8-27.3,8.3-41.3
			c1.3-14,1.3-28.1-0.1-42c-2.8-27.9-11.3-55.3-24.7-79.8c-13.4-24.6-31.7-46.4-53.4-63.8c-21.7-17.4-46.9-30.3-73.4-38
			s-54.6-10.1-81.9-6.9c-13.7,1.6-27.2,4.4-40.2,8.5c-13.1,4.1-25.7,9.5-37.8,16.1c-24,13.1-45.4,30.8-62.6,52
			c-17.2,21.1-30.3,45.5-38.2,71.7c-8,26-10.9,53.6-8.4,80.7c2.5,27.2,10.3,53.8,22.8,78.1c12.5,24.3,29.9,46.3,50.8,64
			c20.9,17.8,45.4,31.5,71.8,40c26.3,8.5,54.4,11.9,82.1,9.6s55.1-10.1,80-22.9c24.9-12.9,47.2-30.7,65.1-52.3
			c9-10.8,16.9-22.4,23.5-34.8C417,308.2,422.4,295.1,426.5,281.7z"/>
	</g>
	<g>
		<path class="st0" d="M231.9,242.5c-8.1-2.1-25.5-3.3-39.6-3.2c-22.6,32.7-70.5,51.9-90.2,44.6c-32.8-12,2.6-40.2,46.6-46.4
			c9.1-1.5,26.2-2.6,37.3-2.8c8.6-14.6,14.1-27,17.8-43.4l0.7-3c-10.6,10.1-43.9,34.5-73,24.9c-22-7.6-36-41.6-16.9-81.6
			c-13.6-14.1-16.9-34.5-0.7-51.1c2.5-2.7,5.1-2.3,2.3,1.5c-11.6,14.6-9.5,31.5,1.2,44.4c1-2.3,2.5-4.6,3.8-6.8
			c18.7-30.5,54.2-47.8,82.7-43.4c54.4,8.5,42.5,73.1-32,74.3c-17.1,0.3-35.1-4.6-46.4-12.1c-15.6,33.5-8.6,62.5,12,69.3
			c23.2,7.6,55.4-11.1,60.3-22.9c10.3-24,22.2-16.9,20.9-7.9c-2.5,19.6-11.1,37-24,58.2c15.7,0.2,28,2,38.6,4.6
			C238.4,240.6,238.6,244.1,231.9,242.5z M150.5,242.3c-31.2,4.8-70,31.5-44.1,37c15.7,3.5,55.9-10.3,76.5-39.8
			C171.9,239.8,160.5,240.8,150.5,242.3z M133.1,123.9c-2,3.2-3.8,6.5-5.5,9.7c10.9,8.3,28.9,13.1,46.9,11.3
			c59.4-6,73.3-56.9,30.2-63.5C180.7,77.9,149.7,96.7,133.1,123.9z"/>
	</g>
	<g>
		<path class="st0" d="M295.8,261.5c-19.9,1.8-36.7,1.2-53.2-4c-6.3,9-19.2,28.7-25.5,44.4c-17.9,44.9,10.1,52.9,42.5,25.9
			c18.1-15.3,36.8-38.3,46.2-55.5c10.9-20.4,20.2-6.2,10.1,5c-9.9,11.1-19.9,30-23.1,47.3c-5.5,29.8,12,25.4,25.9,8.1
			c5.5-7.1,11.4-16.2,15.3-25c1.6-3.3,5-3.5,3,0.7c-3.2,7.1-9.9,19.6-16.4,28.2c-6,8.1-16.1,15.1-25.9,15.1
			c-19.6,0-15.1-34.7-7.3-45.1c-14.4,17.1-47.4,50.8-72.5,40c-16.9-7.3-16.9-38.5,0.7-70.3c4.4-8,9.5-15.6,15.6-22.4
			c-7.1-3.3-13.2-7.3-17.6-12.1c-5-5.6-5.5-17.1-1.6-19.9c2.1-2.8,5.1-0.8,3.2,3.3c-2.3,5.3-0.3,9.3,3.7,13.9
			c3.8,4.5,9.1,8.1,15.6,11.1c22.2-24.7,51.6-46,86-46c18.9,0,30.3,9.3,30.3,22.4C350.6,239.3,336.9,257.9,295.8,261.5z
			 M320.8,208.6c-33,0-55.7,21.7-75.4,45.3c13.8,4.5,28,5.3,50.4,3.3c29.2-2.5,47.6-15.6,47.6-33
			C343.4,213.9,333.7,208.6,320.8,208.6z"/>
	</g>
	<g>
		<path class="st0" d="M372.8,370.9"/>
	</g>
	<g>
		<path class="st0" d="M289,313.6"/>
	</g>
</g>
</svg>
