<?xml version="1.0" encoding="utf-8"?>
<!-- Generator: Adobe Illustrator 23.0.1, SVG Export Plug-In . SVG Version: 6.00 Build 0)  -->
<svg version="1.1" id="Layer_1" xmlns="http://www.w3.org/2000/svg" xmlns:xlink="http://www.w3.org/1999/xlink" x="0px" y="0px"
	 viewBox="0 0 640 480" style="enable-background:new 0 0 640 480;" xml:space="preserve">
<style type="text/css">
	.st0{opacity:0.38;}
	.st1{opacity:0.65;}
	.st2{fill:#B6BCC9;}
	.st3{opacity:0.19;}
	.st4{opacity:0.35;}
	.st5{opacity:0.32;}
	.st6{opacity:0.29;}
	.st7{opacity:0.7;}
</style>
<g class="st0">
	<g class="st1">
		<g>
			<path class="st2" d="M397.8,460.6c-40.2,0.7-80.1,1.5-119.5,2.3l2-1.1l-61.6,102.4l0-0.2l59.6,103.6l0,0l119.5-2.5l-2.1,1.2
				l61.5-102.5v0.5L397.8,460.6z M397.8,460.6l60.2,103.2l0.1,0.2l-0.1,0.3l-58,104.5l-0.7,1.3l-1.4,0l-119.5-2.5l0,0l-59.9-103.4
				l0-0.1l0-0.1l57.9-104.6l0.6-1.2l1.3,0L397.8,460.6z"/>
		</g>
		<g>
			<path class="st2" d="M756.8,461.6c-40.2,0.7-80.1,1.5-119.5,2.3l2-1.1l-61.6,102.4v-0.2l59.6,103.6l0,0l119.5-2.5l-2.1,1.2
				l61.5-102.5v0.5L756.8,461.6z M756.8,461.6l60.2,103.2l0.1,0.2l-0.1,0.3l-58,104.5l-0.7,1.3l-1.4,0l-119.5-2.5l0,0l-59.9-103.4
				l0-0.1l0-0.1l57.9-104.6l0.6-1.2l1.3,0L756.8,461.6z"/>
		</g>
	</g>
	<g class="st3">
		<g class="st4">
			<path class="st2" d="M288.8,460.6c-40.2,0.7-80.1,1.5-119.5,2.3l2-1.1l-61.6,102.4v-0.2l59.6,103.6l0,0l119.5-2.5l-2.1,1.2
				l61.5-102.5v0.5L288.8,460.6z M288.8,460.6l60.2,103.2l0.1,0.2l-0.1,0.3l-58,104.5l-0.7,1.3l-1.4,0l-119.5-2.5l0,0l-59.9-103.4
				l0-0.1l0-0.1l57.9-104.6l0.6-1.2l1.3,0L288.8,460.6z"/>
		</g>
		<g class="st4">
			<path class="st2" d="M467.8,356.6c-40.2,0.7-80.1,1.5-119.5,2.3l2-1.1l-61.6,102.4v-0.2l59.6,103.6l0,0l119.5-2.5l-2.1,1.2
				l61.5-102.5v0.5L467.8,356.6z M467.8,356.6l60.2,103.2l0.1,0.2l-0.1,0.3l-58,104.5l-0.7,1.3l-1.4,0l-119.5-2.5l0,0l-59.9-103.4
				l0-0.1l0-0.1l57.9-104.6l0.6-1.2l1.3,0L467.8,356.6z"/>
		</g>
		<g class="st4">
			<path class="st2" d="M647.8,461.6c-40.2,0.7-80.1,1.5-119.5,2.3l2-1.1l-61.6,102.4v-0.2l59.6,103.6l0,0l119.5-2.5l-2.1,1.2
				l61.5-102.5v0.5L647.8,461.6z M647.8,461.6l60.2,103.2l0.1,0.2l-0.1,0.3l-58,104.5l-0.7,1.3l-1.4,0l-119.5-2.5l0,0l-59.9-103.4
				l0-0.1l0-0.1l57.9-104.6l0.6-1.2l1.3,0L647.8,461.6z"/>
		</g>
		<g class="st4">
			<path class="st2" d="M826.8,357.6c-40.2,0.7-80.1,1.5-119.5,2.3l2-1.1l-61.6,102.4v-0.2l59.6,103.6l0,0l119.5-2.5l-2.1,1.2
				l61.5-102.5v0.5L826.8,357.6z M826.8,357.6l60.2,103.2l0.1,0.2l-0.1,0.3l-58,104.5l-0.7,1.3l-1.4,0l-119.5-2.5l0,0l-59.9-103.4
				l0-0.1l0-0.1l57.9-104.6l0.6-1.2l1.3,0L826.8,357.6z"/>
		</g>
	</g>
	<g class="st1">
		<g class="st5">
			<path class="st2" d="M39.8,459.6c-40.2,0.7-80.1,1.5-119.5,2.3l2-1.1l-61.6,102.4l0-0.2l59.6,103.6l0,0l119.5-2.5l-2.1,1.2
				l61.5-102.5l0,0.5L39.8,459.6z M39.8,459.6l60.2,103.2l0.1,0.2l-0.1,0.3L41.9,667.9l-0.7,1.3l-1.4,0l-119.5-2.5l0,0l-59.9-103.4
				l0-0.1l0-0.1l57.9-104.6l0.6-1.2l1.3,0L39.8,459.6z"/>
		</g>
	</g>
	<g class="st3">
		<g class="st4">
			<path class="st2" d="M-428.2,458.6c-40.2,0.7-80.1,1.5-119.5,2.3l2-1.1l-61.6,102.4v-0.2l59.6,103.6l0,0l119.5-2.5l-2.1,1.2
				l61.5-102.5v0.5L-428.2,458.6z M-428.2,458.6l60.2,103.2l0.1,0.2l-0.1,0.3l-58,104.5l-0.7,1.3l-1.4,0l-119.5-2.5l0,0l-59.9-103.4
				l0-0.1l0-0.1l57.9-104.6l0.6-1.2l1.3,0L-428.2,458.6z"/>
		</g>
		<g class="st4">
			<path class="st2" d="M-249.2,354.6c-40.2,0.7-80.1,1.5-119.5,2.3l2-1.1l-61.6,102.4v-0.2l59.6,103.6l0,0l119.5-2.5l-2.1,1.2
				l61.5-102.5v0.5L-249.2,354.6z M-249.2,354.6l60.2,103.2l0.1,0.2l-0.1,0.3l-58.1,104.5l-0.7,1.3l-1.4,0l-119.5-2.5l0,0
				l-59.9-103.4l0-0.1l0-0.1l57.9-104.6l0.6-1.2l1.3,0L-249.2,354.6z"/>
		</g>
		<g class="st4">
			<path class="st2" d="M-69.2,459.6c-40.2,0.7-80.1,1.5-119.5,2.3l2-1.1l-61.6,102.4l0-0.2l59.6,103.6l0,0l119.5-2.5l-2.1,1.2
				l61.5-102.5l0,0.5L-69.2,459.6z M-69.2,459.6l60.2,103.2l0.1,0.2l-0.1,0.3l-58.1,104.5l-0.7,1.3l-1.4,0l-119.5-2.5l0,0
				l-59.9-103.4l0-0.1l0-0.1l57.9-104.6l0.6-1.2l1.3,0L-69.2,459.6z"/>
		</g>
	</g>
	<g class="st1">
		<g>
			<path class="st2" d="M218.8-57.4c-40.2,0.7-80.1,1.5-119.5,2.3l2-1.1L39.6,46.2v-0.2l59.6,103.6l0,0l119.5-2.5l-2.1,1.2
				l61.5-102.5v0.5L218.8-57.4z M218.8-57.4l60.2,103.2l0.1,0.2l-0.1,0.3l-58.1,104.5l-0.7,1.3l-1.4,0l-119.5-2.5l0,0L39.4,46.2
				l0-0.1l0-0.1L97.3-58.5l0.6-1.2l1.3,0L218.8-57.4z"/>
		</g>
		<g class="st6">
			<path class="st2" d="M397.8,45.6c-40.2,0.7-80.1,1.5-119.5,2.3l2-1.1l-61.6,102.4l0-0.2l59.6,103.6l0,0l119.5-2.5l-2.1,1.2
				l61.5-102.5v0.5L397.8,45.6z M397.8,45.6l60.2,103.2l0.1,0.2l-0.1,0.3l-58,104.5l-0.7,1.3l-1.4,0l-119.5-2.5l0,0l-59.9-103.4
				l0-0.1l0-0.1l57.9-104.6l0.6-1.2l1.3,0L397.8,45.6z"/>
		</g>
		<g>
			<path class="st2" d="M577.8,357.6c-40.2,0.7-80.1,1.5-119.5,2.3l2-1.1l-61.6,102.4v-0.2l59.6,103.6l0,0l119.5-2.5l-2.1,1.2
				l61.5-102.5v0.5L577.8,357.6z M577.8,357.6l60.2,103.2l0.1,0.2l-0.1,0.3l-58,104.5l-0.7,1.3l-1.4,0l-119.5-2.5l0,0l-59.9-103.4
				l0-0.1l0-0.1l57.9-104.6l0.6-1.2l1.3,0L577.8,357.6z"/>
		</g>
		<g class="st6">
			<path class="st2" d="M756.8,253.6c-40.2,0.7-80.1,1.5-119.5,2.3l2-1.1l-61.6,102.4v-0.2l59.6,103.6l0,0l119.5-2.5l-2.1,1.2
				l61.5-102.5v0.5L756.8,253.6z M756.8,253.6l60.2,103.2l0.1,0.2l-0.1,0.3l-58,104.5l-0.7,1.3l-1.4,0l-119.5-2.5l0,0l-59.9-103.4
				l0-0.1l0-0.1l57.9-104.6l0.6-1.2l1.3,0L756.8,253.6z"/>
		</g>
		<g class="st6">
			<path class="st2" d="M756.8,46.6c-40.2,0.7-80.1,1.5-119.5,2.3l2-1.1l-61.6,102.4v-0.2l59.6,103.6l0,0l119.5-2.5l-2.1,1.2
				l61.5-102.5v0.5L756.8,46.6z M756.8,46.6l60.2,103.2l0.1,0.2l-0.1,0.3l-58,104.5l-0.7,1.3l-1.4,0l-119.5-2.5l0,0l-59.9-103.4
				l0-0.1l0-0.1l57.9-104.6l0.6-1.2l1.3,0L756.8,46.6z"/>
		</g>
	</g>
	<g class="st3">
		<g class="st4">
			<path class="st2" d="M288.8,45.6c-40.2,0.7-80.1,1.5-119.5,2.3l2-1.1l-61.6,102.4v-0.2l59.6,103.6l0,0l119.5-2.5l-2.1,1.2
				l61.5-102.5v0.5L288.8,45.6z M288.8,45.6l60.2,103.2l0.1,0.2l-0.1,0.3l-58,104.5l-0.7,1.3l-1.4,0l-119.5-2.5l0,0l-59.9-103.4
				l0-0.1l0-0.1l57.9-104.6l0.6-1.2l1.3,0L288.8,45.6z"/>
		</g>
		<g class="st4">
			<path class="st2" d="M288.8-161.4c-40.2,0.7-80.1,1.5-119.5,2.3l2-1.1L109.6-57.8v-0.2l59.6,103.6l0,0l119.5-2.5l-2.1,1.2
				l61.5-102.5v0.5L288.8-161.4z M288.8-161.4l60.2,103.2l0.1,0.2l-0.1,0.3l-58,104.5l-0.7,1.3l-1.4,0l-119.5-2.5l0,0L109.4-57.8
				l0-0.1l0-0.1l57.9-104.6l0.6-1.2l1.3,0L288.8-161.4z"/>
		</g>
		<g class="st4">
			<path class="st2" d="M288.8-368.4c-40.2,0.7-80.1,1.5-119.5,2.3l2-1.1l-61.6,102.4v-0.2l59.6,103.6l0,0l119.5-2.5l-2.1,1.2
				l61.5-102.5v0.5L288.8-368.4z M288.8-368.4l60.2,103.2l0.1,0.2l-0.1,0.3l-58,104.5l-0.7,1.3l-1.4,0l-119.5-2.5l0,0l-59.9-103.4
				l0-0.1l0-0.1l57.9-104.6l0.6-1.2l1.3,0L288.8-368.4z"/>
		</g>
		<g class="st4">
			<path class="st2" d="M467.8,148.6c-40.2,0.7-80.1,1.5-119.5,2.3l2-1.1l-61.6,102.4v-0.2l59.6,103.6l0,0l119.5-2.5l-2.1,1.2
				l61.5-102.5v0.5L467.8,148.6z M467.8,148.6l60.2,103.2l0.1,0.2l-0.1,0.3l-58,104.5l-0.7,1.3l-1.4,0l-119.5-2.5l0,0l-59.9-103.4
				l0-0.1l0-0.1l57.9-104.6l0.6-1.2l1.3,0L467.8,148.6z"/>
		</g>
		<g class="st4">
			<path class="st2" d="M467.8-58.4c-40.2,0.7-80.1,1.5-119.5,2.3l2-1.1L288.6,45.2v-0.2l59.6,103.6l0,0l119.5-2.5l-2.1,1.2
				l61.5-102.5v0.5L467.8-58.4z M467.8-58.4l60.2,103.2l0.1,0.2l-0.1,0.3l-58,104.5l-0.7,1.3l-1.4,0l-119.5-2.5l0,0L288.4,45.2
				l0-0.1l0-0.1l57.9-104.6l0.6-1.2l1.3,0L467.8-58.4z"/>
		</g>
		<g class="st4">
			<path class="st2" d="M467.8-265.4c-40.2,0.7-80.1,1.5-119.5,2.3l2-1.1l-61.6,102.4v-0.2l59.6,103.6l0,0l119.5-2.5l-2.1,1.2
				l61.5-102.5v0.5L467.8-265.4z M467.8-265.4l60.2,103.2l0.1,0.2l-0.1,0.3l-58,104.5l-0.7,1.3l-1.4,0l-119.5-2.5l0,0l-59.9-103.4
				l0-0.1l0-0.1l57.9-104.6l0.6-1.2l1.3,0L467.8-265.4z"/>
		</g>
		<g class="st4">
			<path class="st2" d="M647.8,253.6c-40.2,0.7-80.1,1.5-119.5,2.3l2-1.1l-61.6,102.4v-0.2l59.6,103.6l0,0l119.5-2.5l-2.1,1.2
				l61.5-102.5v0.5L647.8,253.6z M647.8,253.6l60.2,103.2l0.1,0.2l-0.1,0.3l-58,104.5l-0.7,1.3l-1.4,0l-119.5-2.5l0,0l-59.9-103.4
				l0-0.1l0-0.1l57.9-104.6l0.6-1.2l1.3,0L647.8,253.6z"/>
		</g>
		<g class="st4">
			<path class="st2" d="M826.8-57.4c-40.2,0.7-80.1,1.5-119.5,2.3l2-1.1L647.6,46.2v-0.2l59.6,103.6l0,0l119.5-2.5l-2.1,1.2
				l61.5-102.5v0.5L826.8-57.4z M826.8-57.4l60.2,103.2l0.1,0.2l-0.1,0.3l-58,104.5l-0.7,1.3l-1.4,0l-119.5-2.5l0,0L647.4,46.2
				l0-0.1l0-0.1l57.9-104.6l0.6-1.2l1.3,0L826.8-57.4z"/>
		</g>
		<g class="st4">
			<path class="st2" d="M826.8-471.4c-40.2,0.7-80.1,1.5-119.5,2.3l2-1.1l-61.6,102.4v-0.2l59.6,103.6l0,0l119.5-2.5l-2.1,1.2
				l61.5-102.5v0.5L826.8-471.4z M826.8-471.4l60.2,103.2l0.1,0.2l-0.1,0.3l-58,104.5l-0.7,1.3l-1.4,0l-119.5-2.5l0,0l-59.9-103.4
				l0-0.1l0-0.1l57.9-104.6l0.6-1.2l1.3,0L826.8-471.4z"/>
		</g>
	</g>
	<g class="st1">
		<g>
			<path class="st2" d="M-498.2,355.6c-40.2,0.7-80.1,1.5-119.5,2.3l2-1.1l-61.6,102.4v-0.2l59.6,103.6l0,0l119.5-2.5l-2.1,1.2
				l61.5-102.5v0.5L-498.2,355.6z M-498.2,355.6l60.2,103.2l0.1,0.2l-0.1,0.3l-58,104.5l-0.7,1.3l-1.4,0l-119.5-2.5l0,0l-59.9-103.4
				l0-0.1l0-0.1l57.9-104.6l0.6-1.2l1.3,0L-498.2,355.6z"/>
		</g>
		<g>
			<path class="st2" d="M-498.2,148.6c-40.2,0.7-80.1,1.5-119.5,2.3l2-1.1l-61.6,102.4v-0.2l59.6,103.6l0,0l119.5-2.5l-2.1,1.2
				l61.5-102.5v0.5L-498.2,148.6z M-498.2,148.6l60.2,103.2l0.1,0.2l-0.1,0.3l-58,104.5l-0.7,1.3l-1.4,0l-119.5-2.5l0,0l-59.9-103.4
				l0-0.1l0-0.1l57.9-104.6l0.6-1.2l1.3,0L-498.2,148.6z"/>
		</g>
		<g>
			<path class="st2" d="M-498.2-58.4c-40.2,0.7-80.1,1.5-119.5,2.3l2-1.1l-61.6,102.4v-0.2l59.6,103.6l0,0l119.5-2.5l-2.1,1.2
				l61.5-102.5v0.5L-498.2-58.4z M-498.2-58.4l60.2,103.2l0.1,0.2l-0.1,0.3l-58,104.5l-0.7,1.3l-1.4,0l-119.5-2.5l0,0l-59.9-103.4
				l0-0.1l0-0.1l57.9-104.6l0.6-1.2l1.3,0L-498.2-58.4z"/>
		</g>
		<g>
			<path class="st2" d="M-498.2-265.4c-40.2,0.7-80.1,1.5-119.5,2.3l2-1.1l-61.6,102.4v-0.2l59.6,103.6l0,0l119.5-2.5l-2.1,1.2
				l61.5-102.5v0.5L-498.2-265.4z M-498.2-265.4l60.2,103.2l0.1,0.2l-0.1,0.3l-58,104.5l-0.7,1.3l-1.4,0l-119.5-2.5l0,0l-59.9-103.4
				l0-0.1l0-0.1l57.9-104.6l0.6-1.2l1.3,0L-498.2-265.4z"/>
		</g>
		<g>
			<path class="st2" d="M-319.2,251.6c-40.2,0.7-80.1,1.5-119.5,2.3l2-1.1l-61.6,102.4v-0.2l59.6,103.6l0,0l119.5-2.5l-2.1,1.2
				l61.5-102.5v0.5L-319.2,251.6z M-319.2,251.6l60.2,103.2l0.1,0.2l-0.1,0.3l-58,104.5l-0.7,1.3l-1.4,0l-119.5-2.5l0,0l-59.9-103.4
				l0-0.1l0-0.1l57.9-104.6l0.6-1.2l1.3,0L-319.2,251.6z"/>
		</g>
		<g>
			<path class="st2" d="M-319.2,44.6c-40.2,0.7-80.1,1.5-119.5,2.3l2-1.1l-61.6,102.4v-0.2l59.6,103.6l0,0l119.5-2.5l-2.1,1.2
				l61.5-102.5v0.5L-319.2,44.6z M-319.2,44.6l60.2,103.2l0.1,0.2l-0.1,0.3l-58,104.5l-0.7,1.3l-1.4,0l-119.5-2.5l0,0l-59.9-103.4
				l0-0.1l0-0.1l57.9-104.6l0.6-1.2l1.3,0L-319.2,44.6z"/>
		</g>
		<g>
			<path class="st2" d="M-319.2-162.4c-40.2,0.7-80.1,1.5-119.5,2.3l2-1.1l-61.6,102.4v-0.2l59.6,103.6l0,0l119.5-2.5l-2.1,1.2
				l61.5-102.5v0.5L-319.2-162.4z M-319.2-162.4l60.2,103.2l0.1,0.2l-0.1,0.3l-58,104.5l-0.7,1.3l-1.4,0l-119.5-2.5l0,0l-59.9-103.4
				l0-0.1l0-0.1l57.9-104.6l0.6-1.2l1.3,0L-319.2-162.4z"/>
		</g>
		<g>
			<path class="st2" d="M-319.2-369.4c-40.2,0.7-80.1,1.5-119.5,2.3l2-1.1l-61.6,102.4v-0.2l59.6,103.6l0,0l119.5-2.5l-2.1,1.2
				l61.5-102.5v0.5L-319.2-369.4z M-319.2-369.4l60.2,103.2l0.1,0.2l-0.1,0.3l-58,104.5l-0.7,1.3l-1.4,0l-119.5-2.5l0,0l-59.9-103.4
				l0-0.1l0-0.1l57.9-104.6l0.6-1.2l1.3,0L-319.2-369.4z"/>
		</g>
		<g>
			<path class="st2" d="M-139.2-57.4c-40.2,0.7-80.1,1.5-119.5,2.3l2-1.1l-61.6,102.4v-0.2l59.6,103.6l0,0l119.5-2.5l-2.1,1.2
				l61.5-102.5l0,0.5L-139.2-57.4z M-139.2-57.4l60.2,103.2l0.1,0.2l-0.1,0.3l-58.1,104.5l-0.7,1.3l-1.4,0l-119.5-2.5l0,0
				l-59.9-103.4l0-0.1l0-0.1l57.9-104.6l0.6-1.2l1.3,0L-139.2-57.4z"/>
		</g>
	</g>
	<g class="st3">
		<g class="st4">
			<path class="st2" d="M-428.2,251.6c-40.2,0.7-80.1,1.5-119.5,2.3l2-1.1l-61.6,102.4v-0.2l59.6,103.6l0,0l119.5-2.5l-2.1,1.2
				l61.5-102.5v0.5L-428.2,251.6z M-428.2,251.6l60.2,103.2l0.1,0.2l-0.1,0.3l-58,104.5l-0.7,1.3l-1.4,0l-119.5-2.5l0,0l-59.9-103.4
				l0-0.1l0-0.1l57.9-104.6l0.6-1.2l1.3,0L-428.2,251.6z"/>
		</g>
		<g class="st4">
			<path class="st2" d="M-428.2,44.6c-40.2,0.7-80.1,1.5-119.5,2.3l2-1.1l-61.6,102.4v-0.2l59.6,103.6l0,0l119.5-2.5l-2.1,1.2
				l61.5-102.5v0.5L-428.2,44.6z M-428.2,44.6l60.2,103.2l0.1,0.2l-0.1,0.3l-58,104.5l-0.7,1.3l-1.4,0l-119.5-2.5l0,0l-59.9-103.4
				l0-0.1l0-0.1l57.9-104.6l0.6-1.2l1.3,0L-428.2,44.6z"/>
		</g>
		<g class="st4">
			<path class="st2" d="M-428.2-162.4c-40.2,0.7-80.1,1.5-119.5,2.3l2-1.1l-61.6,102.4v-0.2l59.6,103.6l0,0l119.5-2.5l-2.1,1.2
				l61.5-102.5v0.5L-428.2-162.4z M-428.2-162.4l60.2,103.2l0.1,0.2l-0.1,0.3l-58,104.5l-0.7,1.3l-1.4,0l-119.5-2.5l0,0l-59.9-103.4
				l0-0.1l0-0.1l57.9-104.6l0.6-1.2l1.3,0L-428.2-162.4z"/>
		</g>
		<g class="st4">
			<path class="st2" d="M-428.2-369.4c-40.2,0.7-80.1,1.5-119.5,2.3l2-1.1l-61.6,102.4v-0.2l59.6,103.6l0,0l119.5-2.5l-2.1,1.2
				l61.5-102.5v0.5L-428.2-369.4z M-428.2-369.4l60.2,103.2l0.1,0.2l-0.1,0.3l-58,104.5l-0.7,1.3l-1.4,0l-119.5-2.5l0,0l-59.9-103.4
				l0-0.1l0-0.1l57.9-104.6l0.6-1.2l1.3,0L-428.2-369.4z"/>
		</g>
		<g class="st4">
			<path class="st2" d="M-249.2,147.6c-40.2,0.7-80.1,1.5-119.5,2.3l2-1.1l-61.6,102.4v-0.2l59.6,103.6l0,0l119.5-2.5l-2.1,1.2
				l61.5-102.5v0.5L-249.2,147.6z M-249.2,147.6l60.2,103.2l0.1,0.2l-0.1,0.3l-58.1,104.5l-0.7,1.3l-1.4,0l-119.5-2.5l0,0
				l-59.9-103.4l0-0.1l0-0.1l57.9-104.6l0.6-1.2l1.3,0L-249.2,147.6z"/>
		</g>
		<g class="st4">
			<path class="st2" d="M-249.2-59.4c-40.2,0.7-80.1,1.5-119.5,2.3l2-1.1l-61.6,102.4v-0.2l59.6,103.6l0,0l119.5-2.5l-2.1,1.2
				l61.5-102.5v0.5L-249.2-59.4z M-249.2-59.4l60.2,103.2l0.1,0.2l-0.1,0.3l-58.1,104.5l-0.7,1.3l-1.4,0l-119.5-2.5l0,0l-59.9-103.4
				l0-0.1l0-0.1l57.9-104.6l0.6-1.2l1.3,0L-249.2-59.4z"/>
		</g>
		<g class="st4">
			<path class="st2" d="M-249.2-266.4c-40.2,0.7-80.1,1.5-119.5,2.3l2-1.1l-61.6,102.4v-0.2l59.6,103.6l0,0l119.5-2.5l-2.1,1.2
				l61.5-102.5v0.5L-249.2-266.4z M-249.2-266.4l60.2,103.2l0.1,0.2l-0.1,0.3l-58.1,104.5l-0.7,1.3l-1.4,0l-119.5-2.5l0,0
				l-59.9-103.4l0-0.1l0-0.1l57.9-104.6l0.6-1.2l1.3,0L-249.2-266.4z"/>
		</g>
		<g class="st4">
			<path class="st2" d="M-249.2-473.4c-40.2,0.7-80.1,1.5-119.5,2.3l2-1.1l-61.6,102.4v-0.2l59.6,103.6l0,0l119.5-2.5l-2.1,1.2
				l61.5-102.5v0.5L-249.2-473.4z M-249.2-473.4l60.2,103.2l0.1,0.2l-0.1,0.3l-58.1,104.5l-0.7,1.3l-1.4,0l-119.5-2.5l0,0
				l-59.9-103.4l0-0.1l0-0.1l57.9-104.6l0.6-1.2l1.3,0L-249.2-473.4z"/>
		</g>
		<g class="st4">
			<path class="st2" d="M-69.2,252.6c-40.2,0.7-80.1,1.5-119.5,2.3l2-1.1l-61.6,102.4l0-0.2l59.6,103.6l0,0l119.5-2.5l-2.1,1.2
				l61.5-102.5l0,0.5L-69.2,252.6z M-69.2,252.6l60.2,103.2l0.1,0.2l-0.1,0.3l-58.1,104.5l-0.7,1.3l-1.4,0l-119.5-2.5l0,0
				l-59.9-103.4l0-0.1l0-0.1l57.9-104.6l0.6-1.2l1.3,0L-69.2,252.6z"/>
		</g>
		<g class="st4">
			<path class="st2" d="M-69.2-368.4c-40.2,0.7-80.1,1.5-119.5,2.3l2-1.1l-61.6,102.4l0-0.2l59.6,103.6l0,0l119.5-2.5l-2.1,1.2
				l61.5-102.5l0,0.5L-69.2-368.4z M-69.2-368.4l60.2,103.2l0.1,0.2l-0.1,0.3l-58.1,104.5l-0.7,1.3l-1.4,0l-119.5-2.5l0,0
				l-59.9-103.4l0-0.1l0-0.1l57.9-104.6l0.6-1.2l1.3,0L-69.2-368.4z"/>
		</g>
		<g class="st4">
			<path class="st2" d="M109.8,148.6c-40.2,0.7-80.1,1.5-119.5,2.3l2-1.1l-61.6,102.4v-0.2l59.6,103.6l0,0l119.5-2.5l-2.1,1.2
				l61.5-102.5v0.5L109.8,148.6z M109.8,148.6l60.2,103.2l0.1,0.2l-0.1,0.3l-58.1,104.5l-0.7,1.3l-1.4,0l-119.5-2.5l0,0l-59.9-103.4
				l0-0.1l0-0.1l57.9-104.6l0.6-1.2l1.3,0L109.8,148.6z"/>
		</g>
		<g class="st4">
			<path class="st2" d="M109.8-265.4c-40.2,0.7-80.1,1.5-119.5,2.3l2-1.1l-61.6,102.4v-0.2L-9.8-58.4l0,0l119.5-2.5l-2.1,1.2
				l61.5-102.5v0.5L109.8-265.4z M109.8-265.4l60.2,103.2l0.1,0.2l-0.1,0.3L111.9-57.1l-0.7,1.3l-1.4,0L-9.8-58.4l0,0l-59.9-103.4
				l0-0.1l0-0.1l57.9-104.6l0.6-1.2l1.3,0L109.8-265.4z"/>
		</g>
		<g class="st4">
			<path class="st2" d="M109.8-472.4c-40.2,0.7-80.1,1.5-119.5,2.3l2-1.1l-61.6,102.4v-0.2l59.6,103.6l0,0l119.5-2.5l-2.1,1.2
				l61.5-102.5v0.5L109.8-472.4z M109.8-472.4l60.2,103.2l0.1,0.2l-0.1,0.3l-58.1,104.5l-0.7,1.3l-1.4,0l-119.5-2.5l0,0l-59.9-103.4
				l0-0.1l0-0.1l57.9-104.6l0.6-1.2l1.3,0L109.8-472.4z"/>
		</g>
	</g>
</g>
<g class="st7">
	<path class="st2" d="M418.4,69.6c-66.4,1.3-132,3.1-196.8,4.6l4-2.3L123.5,240.2v-0.3l98.1,170.6l0,0l196.8-5l-4.3,2.5l101.8-168.4
		v1L418.4,69.6z M418.4,69.6l99.3,169.9l0.3,0.5l-0.3,0.5l-94.9,172.4l-1.4,2.6l-2.9-0.1l-196.8-5l0,0L123,240.2l-0.1-0.1l0.1-0.2
		l94.6-172.6l1.3-2.4l2.7,0.1C288,66.5,353.6,68.3,418.4,69.6z"/>
</g>
</svg>
