<?xml version="1.0" encoding="utf-8"?>
<!-- Generator: Adobe Illustrator 23.0.1, SVG Export Plug-In . SVG Version: 6.00 Build 0)  -->
<svg version="1.1" id="Layer_1" xmlns="http://www.w3.org/2000/svg" xmlns:xlink="http://www.w3.org/1999/xlink" x="0px" y="0px"
	 viewBox="0 0 985 240" style="enable-background:new 0 0 985 240;" xml:space="preserve">
<style type="text/css">
	.st0{display:none;}
	.st1{display:inline;}
	.st2{fill:url(#SVGID_1_);}
	.st3{display:inline;opacity:0.55;}
	.st4{opacity:0.31;}
	.st5{display:none;fill:#404853;}
	.st6{filter:url(#Adobe_OpacityMaskFilter);}
	.st7{fill:#FFFFFF;}
	.st8{mask:url(#SVGID_2_);}
	.st9{fill:#CEDEE9;}
	.st10{display:none;fill:url(#SVGID_3_);}
	.st11{fill:url(#SVGID_4_);}
	.st12{fill:url(#SVGID_5_);}
	.st13{fill:url(#SVGID_6_);}
	.st14{fill:url(#SVGID_7_);}
	.st15{fill:url(#SVGID_8_);}
	.st16{fill:none;stroke:#B5BBC8;stroke-width:0.3368;stroke-miterlimit:10;}
	.st17{fill:none;stroke:#B5BBC8;stroke-width:0.4743;stroke-miterlimit:10;}
</style>
<g>
	<g class="st0">
		<g class="st1">
			<linearGradient id="SVGID_1_" gradientUnits="userSpaceOnUse" x1="134.2063" y1="120" x2="517.5747" y2="120">
				<stop  offset="0" style="stop-color:#0C0C0E"/>
				<stop  offset="0.4145" style="stop-color:#0F1114"/>
				<stop  offset="0.964" style="stop-color:#181E25"/>
				<stop  offset="1" style="stop-color:#191F26"/>
			</linearGradient>
			<rect x="134.21" y="0.2" class="st2" width="383.37" height="239.61"/>
		</g>
		<g class="st3">
			<image style="overflow:visible;" width="456" height="312" xlink:href="11518A41.png"  transform="matrix(1 0 0 1 98 -36)">
			</image>
		</g>
	</g>
	<g class="st4">
		<g>
			<polygon class="st5" points="184.75,0.2 164.61,36.14 87.22,36.14 40.24,120 78.91,189.02 58.77,224.97 -0.04,120 20.1,84.05 
				67.09,0.2 			"/>
			<g>
				<defs>
					<filter id="Adobe_OpacityMaskFilter" filterUnits="userSpaceOnUse" x="-3.53" y="-3.53" width="285.91" height="257.91">
						<feColorMatrix  type="matrix" values="1 0 0 0 0  0 1 0 0 0  0 0 1 0 0  0 0 0 1 0"/>
					</filter>
				</defs>
				<mask maskUnits="userSpaceOnUse" x="-3.53" y="-3.53" width="285.91" height="257.91" id="SVGID_2_">
					<g class="st6">
						<polygon class="st7" points="201.33,0.2 67.08,0.2 -0.04,120 67.08,239.8 201.33,239.8 268.45,120 						"/>
					</g>
				</mask>
				<g class="st8">
					<g>
						<g style="opacity:0.2185;">
							
								<image style="overflow:visible;" width="211" height="251" xlink:href="11518A42.png"  transform="matrix(1 0 0 1 71.3813 3.3813)">
							</image>
						</g>
						<g>
							<g>
								<g>
									<g style="opacity:0.75;">
										
											<image style="overflow:visible;" width="198" height="238" xlink:href="11518A43.png"  transform="matrix(1 0 0 1 77.4695 8.4695)">
										</image>
									</g>
									<g>
										<polygon class="st9" points="268.45,120 201.33,239.8 84.39,239.8 102.52,207.45 140.49,139.71 106.6,139.71 
											128.64,100.51 162.47,100.51 210.01,15.69 230.03,51.42 142.8,207.45 178.17,207.45 212.94,145.22 247.72,82.99 
																					"/>
									</g>
								</g>
								<g>
									<polygon class="st9" points="268.45,120 201.33,239.8 160.09,239.8 178.17,207.45 212.94,145.22 247.72,82.99 									"/>
									<polygon class="st9" points="162.38,100.51 140.4,139.71 106.6,139.71 128.64,100.51 									"/>
									<polygon class="st9" points="230.03,51.42 142.8,207.45 102.52,207.45 140.49,139.71 140.4,139.71 162.38,100.51 
										162.47,100.51 210.01,15.69 									"/>
									<polygon class="st9" points="178.17,207.45 160.09,239.8 84.39,239.8 102.52,207.45 									"/>
								</g>
							</g>
						</g>
					</g>
					<g>
						<g style="opacity:0.3478;">
							
								<image style="overflow:visible;" width="198" height="239" xlink:href="11518A44.png"  transform="matrix(1 0 0 1 -3.5305 -3.5305)">
							</image>
						</g>
						<g>
							<g>
								<polygon class="st9" points="184.75,0.2 164.61,36.14 87.22,36.14 107.36,0.2 								"/>
								<polygon class="st9" points="107.36,0.2 87.22,36.14 40.24,120 20.1,84.05 67.09,0.2 								"/>
								<polygon class="st9" points="78.91,189.02 58.77,224.97 -0.04,120 20.1,84.05 40.24,120 								"/>
							</g>
						</g>
					</g>
				</g>
			</g>
			<g id="shadows_3_">
				<g>
					<linearGradient id="SVGID_3_" gradientUnits="userSpaceOnUse" x1="160.0893" y1="161.3972" x2="268.4503" y2="161.3972">
						<stop  offset="0" style="stop-color:#FFFFFF;stop-opacity:0"/>
						<stop  offset="1" style="stop-color:#000000"/>
					</linearGradient>
					<polygon class="st10" points="212.94,145.22 178.17,207.45 178.17,207.45 160.09,239.8 201.33,239.8 268.45,120 247.72,82.99 
											"/>
					<linearGradient id="SVGID_4_" gradientUnits="userSpaceOnUse" x1="109.851" y1="109.1887" x2="167.126" y2="134.5815">
						<stop  offset="0" style="stop-color:#FFFFFF;stop-opacity:0"/>
						<stop  offset="1" style="stop-color:#000000"/>
					</linearGradient>
					<polygon class="st11" points="128.64,100.51 106.6,139.72 140.39,139.72 162.38,100.51 					"/>
					<linearGradient id="SVGID_5_" gradientUnits="userSpaceOnUse" x1="172.192" y1="152.1095" x2="186.378" y2="206.4893">
						<stop  offset="0" style="stop-color:#FFFFFF;stop-opacity:0"/>
						<stop  offset="1" style="stop-color:#000000"/>
					</linearGradient>
					<polygon class="st12" points="210.01,15.69 162.46,100.51 162.38,100.51 140.39,139.72 140.49,139.72 102.53,207.45 
						142.8,207.45 230.03,51.42 					"/>
					<linearGradient id="SVGID_6_" gradientUnits="userSpaceOnUse" x1="116.3405" y1="223.6245" x2="192.123" y2="223.6245">
						<stop  offset="0" style="stop-color:#FFFFFF;stop-opacity:0"/>
						<stop  offset="1" style="stop-color:#000000"/>
					</linearGradient>
					<polygon class="st13" points="102.53,207.45 84.39,239.8 160.09,239.8 178.17,207.45 142.8,207.45 					"/>
				</g>
				<g>
					<linearGradient id="SVGID_7_" gradientUnits="userSpaceOnUse" x1="148.9355" y1="18.1689" x2="61.0138" y2="18.1689">
						<stop  offset="0" style="stop-color:#FFFFFF;stop-opacity:0"/>
						<stop  offset="1" style="stop-color:#000000"/>
					</linearGradient>
					<polygon class="st14" points="184.75,0.2 107.36,0.2 87.22,36.14 164.61,36.14 					"/>
					<linearGradient id="SVGID_8_" gradientUnits="userSpaceOnUse" x1="53.0597" y1="61.0919" x2="9.2032" y2="133.4552">
						<stop  offset="0" style="stop-color:#FFFFFF;stop-opacity:0"/>
						<stop  offset="1" style="stop-color:#000000"/>
					</linearGradient>
					<polygon class="st15" points="67.09,0.2 20.1,84.05 40.24,120 107.36,0.2 					"/>
					<polygon class="st5" points="78.91,189.02 58.77,224.97 -0.04,120 20.1,84.05 					"/>
				</g>
			</g>
		</g>
	</g>
	<g>
		
			<image style="overflow:visible;opacity:0.8;" width="165" height="288" xlink:href="11518A45.png"  transform="matrix(1 0 0 1 189.2032 -29.7968)">
		</image>
		<g>
			<line class="st16" x1="350.83" y1="-26.23" x2="192.64" y2="254.84"/>
		</g>
	</g>
	<g>
		
			<image style="overflow:visible;opacity:0.8;" width="165" height="289" xlink:href="11518A46.png"  transform="matrix(1 0 0 1 146.2032 -26.7968)">
		</image>
		<g>
			<line class="st16" x1="307.56" y1="-23.1" x2="149.37" y2="257.98"/>
		</g>
	</g>
	<g>
		
			<image style="overflow:visible;opacity:0.8;" width="165" height="288" xlink:href="11518A47.png"  transform="matrix(1 0 0 1 32.2032 -17.7968)">
		</image>
		<g>
			<line class="st16" x1="193.44" y1="-14.84" x2="35.25" y2="266.23"/>
		</g>
	</g>
	<g>
		
			<image style="overflow:visible;opacity:0.8;" width="166" height="288" xlink:href="11518A4A.png"  transform="matrix(1 0 0 1 67.2032 -20.7968)">
		</image>
		<g>
			<line class="st16" x1="228.94" y1="-17.41" x2="70.75" y2="263.66"/>
		</g>
	</g>
	<g>
		
			<image style="overflow:visible;opacity:0.8;" width="165" height="288" xlink:href="11518A4B.png"  transform="matrix(1 0 0 1 109.2032 -23.7968)">
		</image>
		<g>
			<line class="st16" x1="270.63" y1="-20.43" x2="112.45" y2="260.65"/>
		</g>
	</g>
	<g>
		
			<image style="overflow:visible;opacity:0.8;" width="994" height="10" xlink:href="80C8FDE9.png"  transform="matrix(1 0 0 1 -4.2688 134.7312)">
		</image>
		<g>
			<line class="st17" x1="0" y1="139.72" x2="985" y2="139.72"/>
		</g>
	</g>
	<g>
		
			<image style="overflow:visible;opacity:0.8;" width="994" height="10" xlink:href="80C8FDEB.png"  transform="matrix(1 0 0 1 -4.2688 202.7312)">
		</image>
		<g>
			<line class="st17" x1="0" y1="207.45" x2="985" y2="207.45"/>
		</g>
	</g>
</g>
</svg>
