<?xml version="1.0" encoding="utf-8"?>
<!-- Generator: Adobe Illustrator 23.0.1, SVG Export Plug-In . SVG Version: 6.00 Build 0)  -->
<svg version="1.1" id="Layer_1" xmlns="http://www.w3.org/2000/svg" xmlns:xlink="http://www.w3.org/1999/xlink" x="0px" y="0px"
	 viewBox="0 0 640 480" style="enable-background:new 0 0 640 480;" xml:space="preserve">
<style type="text/css">
	.st0{opacity:0.38;fill:#B6BCC9;}
</style>
<path class="st0" d="M579.7,77.3c-2,0-4.5,0.5-7.6,1.5c-3.1,1-7,4.1-11.7,9.3c-4.7,5.3-8.2,9.8-10.5,13.7
	c-27.7,3.7-53.3,10.1-76.8,19.3c-14.6,5.7-27.7,12.1-39.3,19.3c-11.6,7.2-21.7,16.4-30.2,27.5c-11.3,14.4-16.9,29.5-16.9,45.3
	c0,12.5,4.5,22.4,13.4,29.8c7,5.7,14.9,8.5,23.7,8.5c5.3,0,10.8-1,16.7-2.9c12.7-4.5,22.6-12.9,29.8-25.1c4.3-7.4,6.4-14,6.4-19.7
	c0-5.7-1-10.8-2.9-15c-2.3-2.5-4.6-3.2-6.7-2c-2,1.4-1.8,2.8,0.6,4.4c1.4,1.6,2,4.7,2,9.3c0,11.1-3.7,20.9-11.1,29.5
	c-4.7,5.3-9.9,9-15.8,11.1c-5.8,2.1-11.2,3.2-16.1,3.2c-4.9,0-9.5-2.5-13.9-7.6c-4.4-5.1-6.6-12.2-6.6-21.3
	c0-16.9,6.5-32.8,19.6-47.6c10.1-11.7,22.3-21.3,36.5-28.9c28-15,55.6-24.7,82.7-29.2c-15.8,24.9-31.4,54.5-46.7,88.8
	c-12.3,28.8-24.2,54.3-35.9,76.5c-7.2,13.6-14,25.3-20.5,35.1c-6.4,9.7-14.4,20.5-23.8,32.4c-9.4,11.9-18.9,21.9-28.5,29.9
	c-9.5,8.1-20.5,15.5-32.9,22.3c-12.4,6.8-25.2,11.7-38.4,14.6c-6,1.6-13,2.3-20.7,2.3c-7.8,0-18.3-1.3-31.6-3.8
	c-9-1.8-17.3-5-25.1-9.6c-7.8-4.7-14.3-9.9-19.6-15.8c-7.6-8.8-11.4-20.3-11.4-34.5c0-2.1,0.3-4.7,0.8-7.7c0.6,0,1.2,0.1,1.8,0.1
	c11.5,0,26.3-6.1,44.6-18.4c18.2-12.3,36.7-29.9,55.4-53c18.7-23.1,32.5-46.5,41.5-70.3c3.7-10.7,5.6-20,5.6-27.9
	s-1.9-14.7-5.6-20.3c-6.6-10.1-14.4-16.5-23.4-19l-5.6-0.6c-2.5,0.4-3.6,1.7-3.1,3.8c0.5,2.1,2.2,3.5,5.1,3.9
	c2.9,0.5,5.7,1.1,8.5,1.9c0.4,0,1.2,0.3,2.3,1c1.2,0.7,1.9,1.5,2.3,2.3c0.4,0.9,1.2,2.8,2.3,5.8c1.2,3,1.8,8.2,1.8,15.6
	c0,14-3.9,29.4-11.7,46.2c-12.1,26.3-28.7,50.4-50,72.5c-30.2,31.4-51.3,47-63.4,47c-2.4,0-4.4-0.7-5.8-2.2c0.1-0.3,0.1-0.6,0.2-0.8
	c2.4-8.7,7.4-17.3,15-25.9c7.6-8.6,14.5-14.1,20.7-16.7c2.3-1.2,3.6-2.1,3.8-2.9c0-1-1.2-1.4-3.5-1.2c-5.3,0.2-12.6,4.2-21.9,12
	c-7.8,6.5-13.6,13.4-17.5,20.7c0.9-12.3,5.9-32.4,15-60.1c6.8-20.6,14.6-39.9,23.4-57.8c14-28.8,21-53,21-72.5
	c0-26.5-9.4-43.8-28.3-52c-10.7-4.1-22.6-6.1-35.6-6.1c-13.1,0-27,2.8-41.8,8.5c-14.8,5.5-28.8,12.3-42.1,20.6
	c-13.2,8.3-25.6,18.6-37,31c-11.4,12.4-20.1,25.8-26.1,40.2c-6,14.4-9.1,27.8-9.1,40c0,5.3,0.5,10.2,1.5,14.9
	c3.7,16,11.1,28.7,22.2,38.1c11.1,9.4,23.1,14.2,36.1,14.2c13,0,26-3.7,39.3-11c13.2-7.3,24.4-16.9,33.5-28.9
	c9.1-12,13.6-23.9,13.6-35.8c0-11.9-3.8-20.7-11.4-26.6c-4.1-2.9-8.6-4.4-13.4-4.4c-4.9,0-9.5,1-14,3.1c-4.5,2-6.7,3.7-6.7,5
	c0,1.3,1.8,1.4,5.6,0.3c3.7-1.1,7.4-1.6,11.1-1.6c3.7,0,7.3,1.9,10.8,5.8c3.5,3.9,5.3,10.2,5.3,19c0,16.2-7.2,31.5-21.5,45.9
	c-14.3,14.4-29.7,21.6-46,21.6c-11.7,0-21.8-3.3-30.4-9.9c-8.6-6.6-14.4-16.7-17.5-30.1c-0.8-4.1-1.2-8.4-1.2-12.9
	c0-10.9,2.5-23.1,7.4-36.7c5-13.5,12.5-26.5,22.6-38.9c10.1-12.4,21.4-23,33.7-32c12.4-9,25.6-16.6,39.6-22.8
	c14-6.2,27.4-9.3,40-9.3c12.1,0,23,2.6,32.7,7.9c5.5,3.3,8.7,9.3,9.6,17.8c0.4,2.7,0.6,6.5,0.6,11.2c0,4.8-0.9,11.2-2.6,19.1
	c-4.5,20.6-11.4,41.9-20.7,63.7c-24.2,57.7-36.2,98.5-36.2,122.4c0,11.8,3,19.5,8.9,23c-1.2,5.6-1.8,10.8-1.8,15.6
	c0,9.9,1.8,18.6,5.3,26c7.8,16,22.2,27.5,43.2,34.5c13.4,4.5,26.5,6.7,39.1,6.7c12.7,0,24-0.7,33.9-2c21.6-2.9,45.5-12.3,71.7-28.2
	c26.2-15.9,47.2-36.1,63-60.6c11.7-18.3,22.3-38.2,31.8-59.7c9.5-21.5,16.9-40.6,22.2-57.1c13.8-43.8,28.2-78.7,43.2-104.6l12.6-2.3
	c7.4-2.3,13.1-4.9,17.2-7.7c4.1-2.8,6.2-6.9,6.4-12.1C590,80.2,586.5,77.3,579.7,77.3z M559,100.9c0.4-0.4,1.2-1.2,2.3-2.5
	c1.2-1.3,2.1-2.2,2.8-2.9c0.7-0.7,1.6-1.6,2.6-2.8c1.1-1.2,2-2,2.8-2.6c0.8-0.6,1.6-1.2,2.5-1.9c0.9-0.7,1.6-1.1,2-1.3
	c0.5-0.2,0.9-0.3,1.3-0.3c1.9,0,3.1,1.2,3.5,3.5C579,95,572.4,98.6,559,100.9z"/>
</svg>
