<?xml version="1.0" encoding="utf-8"?>
<!-- Generator: Adobe Illustrator 23.0.1, SVG Export Plug-In . SVG Version: 6.00 Build 0)  -->
<svg version="1.1" id="Layer_1" xmlns="http://www.w3.org/2000/svg" xmlns:xlink="http://www.w3.org/1999/xlink" x="0px" y="0px"
	 viewBox="0 0 807 720" style="enable-background:new 0 0 807 720;" xml:space="preserve">
<style type="text/css">
	.st0{opacity:0.13;}
	.st1{display:none;fill:#404853;}
	.st2{filter:url(#Adobe_OpacityMaskFilter);}
	.st3{fill:#FFFFFF;}
	.st4{mask:url(#SVGID_1_);}
	.st5{fill:#CEDEE9;}
	.st6{display:none;fill:url(#SVGID_2_);}
	.st7{fill:url(#SVGID_3_);}
	.st8{fill:url(#SVGID_4_);}
	.st9{fill:url(#SVGID_5_);}
	.st10{fill:url(#SVGID_6_);}
	.st11{fill:url(#SVGID_7_);}
	.st12{opacity:0.56;}
	.st13{display:none;fill:url(#SVGID_8_);}
	.st14{opacity:0.16;fill:url(#SVGID_9_);}
	.st15{opacity:0.16;fill:url(#SVGID_10_);}
	.st16{opacity:0.16;fill:url(#SVGID_11_);}
	.st17{opacity:0.16;fill:url(#SVGID_12_);}
	.st18{opacity:0.16;fill:url(#SVGID_13_);}
</style>
<g class="st0">
	<g>
		<polygon class="st1" points="555.39,0 494.87,108 262.32,108.01 121.13,359.99 237.34,567.41 176.83,675.42 0.1,359.99 
			60.62,251.98 201.81,0 		"/>
		<g>
			<defs>
				<filter id="Adobe_OpacityMaskFilter" filterUnits="userSpaceOnUse" x="-10.62" y="-10.62" width="855.73" height="770.73">
					<feColorMatrix  type="matrix" values="1 0 0 0 0  0 1 0 0 0  0 0 1 0 0  0 0 0 1 0"/>
				</filter>
			</defs>
			<mask maskUnits="userSpaceOnUse" x="-10.62" y="-10.62" width="855.73" height="770.73" id="SVGID_1_">
				<g class="st2">
					<polygon class="st3" points="605.2,0 201.8,0 0.1,359.99 201.8,719.99 605.2,719.99 806.9,359.99 					"/>
				</g>
			</mask>
			<g class="st4">
				<g>
					<g style="opacity:0.2185;">
						
							<image style="overflow:visible;" width="630" height="752" xlink:href="751E5E65.png"  transform="matrix(1 0 0 1 215.1064 8.1064)">
						</image>
					</g>
					<g>
						<g>
							<g>
								<g style="opacity:0.75;">
									
										<image style="overflow:visible;" width="594" height="714" xlink:href="751E5E67.png"  transform="matrix(1 0 0 1 233.3761 26.3762)">
									</image>
								</g>
								<g>
									<polygon class="st5" points="806.9,359.99 605.19,720 253.81,720 308.3,622.77 422.38,419.24 320.54,419.24 386.76,301.44 
										488.42,301.44 631.28,46.55 691.44,153.92 429.33,622.77 535.6,622.77 640.1,435.78 744.6,248.8 									"/>
								</g>
							</g>
							<g>
								<polygon class="st5" points="806.9,359.99 605.19,720 481.28,720 535.6,622.77 640.1,435.78 744.6,248.8 								"/>
								<polygon class="st5" points="488.16,301.44 422.1,419.24 320.54,419.24 386.76,301.44 								"/>
								<polygon class="st5" points="691.44,153.92 429.33,622.77 308.3,622.77 422.38,419.24 422.1,419.24 488.16,301.44 
									488.42,301.44 631.28,46.55 								"/>
								<polygon class="st5" points="535.6,622.77 481.28,720 253.81,720 308.3,622.77 								"/>
							</g>
						</g>
					</g>
				</g>
				<g>
					<g style="opacity:0.3478;">
						
							<image style="overflow:visible;" width="596" height="716" xlink:href="751E5E62.png"  transform="matrix(1 0 0 1 -10.6238 -10.6238)">
						</image>
					</g>
					<g>
						<g>
							<polygon class="st5" points="555.39,0 494.87,108 262.32,108.01 322.84,0 							"/>
							<polygon class="st5" points="322.84,0 262.32,108.01 121.13,359.99 60.62,251.98 201.81,0 							"/>
							<polygon class="st5" points="237.34,567.41 176.83,675.42 0.1,359.99 60.62,251.98 121.13,359.99 							"/>
						</g>
					</g>
				</g>
			</g>
		</g>
		<g id="shadows_3_">
			<g>
				<linearGradient id="SVGID_2_" gradientUnits="userSpaceOnUse" x1="481.277" y1="484.3961" x2="806.8956" y2="484.3961">
					<stop  offset="0" style="stop-color:#FFFFFF;stop-opacity:0"/>
					<stop  offset="1" style="stop-color:#000000"/>
				</linearGradient>
				<polygon class="st6" points="640.1,435.79 535.6,622.78 535.6,622.78 481.28,719.99 605.2,719.99 806.9,359.99 744.59,248.8 
									"/>
				<linearGradient id="SVGID_3_" gradientUnits="userSpaceOnUse" x1="330.3138" y1="327.5125" x2="502.4219" y2="403.8166">
					<stop  offset="0" style="stop-color:#FFFFFF;stop-opacity:0"/>
					<stop  offset="1" style="stop-color:#000000"/>
				</linearGradient>
				<polygon class="st7" points="386.76,301.43 320.55,419.24 422.09,419.24 488.16,301.43 				"/>
				<linearGradient id="SVGID_4_" gradientUnits="userSpaceOnUse" x1="517.6448" y1="456.4873" x2="560.2731" y2="619.8954">
					<stop  offset="0" style="stop-color:#FFFFFF;stop-opacity:0"/>
					<stop  offset="1" style="stop-color:#000000"/>
				</linearGradient>
				<polygon class="st8" points="631.27,46.55 488.42,301.43 488.16,301.43 422.09,419.24 422.38,419.24 308.3,622.78 
					429.33,622.78 691.44,153.93 				"/>
				<linearGradient id="SVGID_5_" gradientUnits="userSpaceOnUse" x1="349.8145" y1="671.3855" x2="577.5364" y2="671.3855">
					<stop  offset="0" style="stop-color:#FFFFFF;stop-opacity:0"/>
					<stop  offset="1" style="stop-color:#000000"/>
				</linearGradient>
				<polygon class="st9" points="308.3,622.78 253.81,719.99 481.28,719.99 535.6,622.78 429.33,622.78 				"/>
			</g>
			<g>
				<linearGradient id="SVGID_6_" gradientUnits="userSpaceOnUse" x1="447.7604" y1="54.0035" x2="183.5609" y2="54.0035">
					<stop  offset="0" style="stop-color:#FFFFFF;stop-opacity:0"/>
					<stop  offset="1" style="stop-color:#000000"/>
				</linearGradient>
				<polygon class="st10" points="555.39,0 322.84,0 262.31,108.01 494.87,108 				"/>
				<linearGradient id="SVGID_7_" gradientUnits="userSpaceOnUse" x1="159.6591" y1="182.9847" x2="27.8728" y2="400.432">
					<stop  offset="0" style="stop-color:#FFFFFF;stop-opacity:0"/>
					<stop  offset="1" style="stop-color:#000000"/>
				</linearGradient>
				<polygon class="st11" points="201.81,0 60.62,251.98 121.13,359.99 322.84,0 				"/>
				<polygon class="st1" points="237.35,567.41 176.83,675.42 0.1,359.99 60.62,251.98 				"/>
			</g>
		</g>
		<g id="highlights_3_" class="st12">
			<g>
				<linearGradient id="SVGID_8_" gradientUnits="userSpaceOnUse" x1="481.277" y1="484.3961" x2="806.8956" y2="484.3961">
					<stop  offset="0" style="stop-color:#FFFFFF;stop-opacity:0"/>
					<stop  offset="1" style="stop-color:#000000"/>
				</linearGradient>
				<polygon class="st13" points="640.1,435.79 535.6,622.78 535.6,622.78 481.28,719.99 605.2,719.99 806.9,359.99 744.59,248.8 
									"/>
				<linearGradient id="SVGID_9_" gradientUnits="userSpaceOnUse" x1="397.2911" y1="357.2069" x2="569.3992" y2="433.511">
					<stop  offset="0" style="stop-color:#FFFFFF"/>
					<stop  offset="1" style="stop-color:#000000;stop-opacity:0"/>
				</linearGradient>
				<polygon class="st14" points="386.76,301.43 320.55,419.24 422.09,419.24 488.16,301.43 				"/>
				<linearGradient id="SVGID_10_" gradientUnits="userSpaceOnUse" x1="598.284" y1="157.8393" x2="467.1367" y2="465.0233">
					<stop  offset="0" style="stop-color:#FFFFFF"/>
					<stop  offset="1" style="stop-color:#000000;stop-opacity:0"/>
				</linearGradient>
				<polygon class="st15" points="631.27,46.55 488.42,301.43 488.16,301.43 422.09,419.24 422.38,419.24 308.3,622.78 
					429.33,622.78 691.44,153.93 				"/>
				<linearGradient id="SVGID_11_" gradientUnits="userSpaceOnUse" x1="349.8145" y1="671.3855" x2="577.5364" y2="671.3855">
					<stop  offset="0" style="stop-color:#FFFFFF"/>
					<stop  offset="1" style="stop-color:#000000;stop-opacity:0"/>
				</linearGradient>
				<polygon class="st16" points="308.3,622.78 253.81,719.99 481.28,719.99 535.6,622.78 429.33,622.78 				"/>
			</g>
			<g>
				<linearGradient id="SVGID_12_" gradientUnits="userSpaceOnUse" x1="557.6261" y1="5.8191" x2="330.0862" y2="79.511">
					<stop  offset="0" style="stop-color:#FFFFFF"/>
					<stop  offset="1" style="stop-color:#000000;stop-opacity:0"/>
				</linearGradient>
				<polygon class="st17" points="555.39,0 322.84,0 262.31,108.01 494.87,108 				"/>
				<linearGradient id="SVGID_13_" gradientUnits="userSpaceOnUse" x1="280.4529" y1="-16.325" x2="148.6666" y2="201.1223">
					<stop  offset="0" style="stop-color:#FFFFFF"/>
					<stop  offset="1" style="stop-color:#000000;stop-opacity:0"/>
				</linearGradient>
				<polygon class="st18" points="201.81,0 60.62,251.98 121.13,359.99 322.84,0 				"/>
				<polygon class="st1" points="237.35,567.41 176.83,675.42 0.1,359.99 60.62,251.98 				"/>
			</g>
		</g>
	</g>
</g>
</svg>
