<?xml version="1.0" encoding="utf-8"?>
<!-- Generator: Adobe Illustrator 23.0.1, SVG Export Plug-In . SVG Version: 6.00 Build 0)  -->
<svg version="1.1" id="Layer_1" xmlns="http://www.w3.org/2000/svg" xmlns:xlink="http://www.w3.org/1999/xlink" x="0px" y="0px"
	 viewBox="0 0 640 480" style="enable-background:new 0 0 640 480;" xml:space="preserve">
<style type="text/css">
	.st0{opacity:0.82;fill:#C7CBD3;}
	.st1{opacity:0.51;fill:#B6BCC9;}
</style>
<path class="st0" d="M500.4,106.3C459.5,51.2,393.9,15.5,320,15.5C196,15.5,95.5,116,95.5,240c0,73.9,35.7,139.5,90.8,180.4
	c37.3,27.7,83.6,44.1,133.7,44.1c124,0,224.5-100.5,224.5-224.5C544.5,189.9,528.1,143.7,500.4,106.3z"/>
<path class="st1" d="M544.5,240c0-50.1-16.4-96.3-44.1-133.7c-37.3-27.7-83.6-44.1-133.7-44.1c-124,0-224.5,100.5-224.5,224.5
	c0,50.1,16.4,96.3,44.1,133.7c37.3,27.7,83.6,44.1,133.7,44.1C444,464.5,544.5,364,544.5,240z"/>
</svg>
