<?xml version="1.0" encoding="utf-8"?>
<!-- Generator: Adobe Illustrator 23.0.1, SVG Export Plug-In . SVG Version: 6.00 Build 0)  -->
<svg version="1.1" id="panicButtonSymbol" xmlns="http://www.w3.org/2000/svg" xmlns:xlink="http://www.w3.org/1999/xlink" x="0px"
	 y="0px" viewBox="0 0 640 480" style="enable-background:new 0 0 640 480;" xml:space="preserve">
<style type="text/css">
	.st0{opacity:0.64;fill:#B6BCC9;}
	.st1{opacity:0.91;fill:#B6BCC9;}
	.st2{opacity:0.51;fill:#B6BCC9;}
	.st3{opacity:0.71;fill:#B6BCC9;}
	.st4{opacity:0.23;fill:#B6BCC9;stroke:#7F838C;stroke-miterlimit:10;}
	.st5{opacity:0.51;}
	.st6{fill:#FFFFFF;}
</style>
<circle class="st0" cx="320" cy="240" r="231.5"/>
<path class="st1" d="M320,463.3c-126.5,0-229.2-101.4-231.4-227.4c0,1.4-0.1,2.7-0.1,4.1c0,127.8,103.6,231.5,231.5,231.5
	S551.5,367.8,551.5,240c0-1.4,0-2.7-0.1-4.1C549.2,361.9,446.5,463.3,320,463.3z"/>
<ellipse class="st2" cx="320" cy="235.9" rx="231.4" ry="227.4"/>
<path class="st3" d="M320,446.3c-117.3,0-212.6-93.9-214.9-210.6c0,1.5-0.1,2.9-0.1,4.4c0,118.7,96.3,215,215,215s215-96.3,215-215
	c0-1.5,0-2.9-0.1-4.4C532.6,352.4,437.3,446.3,320,446.3z"/>
<ellipse class="st4" cx="320" cy="235.6" rx="214.9" ry="210.6"/>
<g class="st5">
	<path class="st6" d="M218.3,221.2c0,8.4-2.8,14-7.7,18.9c-4.9,4.2-12.6,6.3-21.7,6.3h-7V273h-15.4v-75h23.8c9.1,0,16.1,2.1,21,5.6
		C216.2,207.9,218.3,213.5,218.3,221.2z M182.5,233.8h4.9c4.9,0,8.4-0.7,11.2-2.8c2.1-2.1,3.5-4.9,3.5-8.4s-0.7-6.3-2.8-8.4
		c-2.1-2.1-4.9-2.8-9.8-2.8h-7C182.5,211.4,182.5,233.8,182.5,233.8z"/>
	<path class="st6" d="M279.2,273l-5.6-18.2h-27.3l-5.6,18.2h-17.5l26.6-75.7h19.6l26.6,75.7H279.2z M269.4,242.2
		c-4.9-16.1-7.7-25.2-8.4-27.3c-0.7-2.1-1.4-3.5-1.4-4.9c-1.4,4.2-4.2,15.4-9.8,32.9h19.6V242.2z"/>
	<path class="st6" d="M372.5,273h-20.3l-32.9-56.8h-0.7c0.7,9.8,0.7,17.5,0.7,21.7v35.7h-14v-75.7h20.3l32.9,56.8h0.7
		c-0.7-9.8-0.7-16.8-0.7-21v-35.7h14.7v75H372.5z"/>
	<path class="st6" d="M391.4,273v-75h16.1v75.7h-16.1V273z"/>
	<path class="st6" d="M458.7,210c-6.3,0-10.5,2.1-14,7c-3.5,4.2-4.9,10.5-4.9,18.9c0,16.8,6.3,25.2,18.9,25.2
		c5.6,0,11.9-1.4,18.9-4.2v13.3c-6.3,2.8-13.3,4.2-21,4.2c-11.2,0-19.6-3.5-25.2-9.8s-8.4-16.1-8.4-28.7c0-7.7,1.4-14.7,4.2-20.3
		c2.8-5.6,7-10.5,12.6-13.3c5.6-2.8,11.9-4.9,18.9-4.9c7,0,14.7,2.1,21.7,5.6l-4.9,12.6c-2.8-1.4-5.6-2.8-8.4-3.5
		C464.3,210.7,461.5,210,458.7,210z"/>
</g>
</svg>
