<?xml version="1.0" encoding="utf-8"?>
<!-- Generator: Adobe Illustrator 23.0.1, SVG Export Plug-In . SVG Version: 6.00 Build 0)  -->
<svg version="1.1" id="silverOakSymbol" xmlns="http://www.w3.org/2000/svg" xmlns:xlink="http://www.w3.org/1999/xlink" x="0px"
	 y="0px" viewBox="0 0 640 480" style="enable-background:new 0 0 640 480;" xml:space="preserve">
<style type="text/css">
	.st0{fill:#B6BCC9;}
</style>
<g>
	<path class="st0" d="M499.2,143.8c-28.1,44.5-70.7,70.7-116.2,92c-2.9,1.4-5.8,2.7-9.1,4c-3.3,1.3-6.9,2.8-11.3,4.7
		c-1.9,79.4,27.1,147.1,67.8,212c-6.8-7.8-15.5-15.5-21.3-24.2c-39.7-59.1-62-123.9-61-195.6c0-25.2,5.8-48.4,23.2-67.8
		c11.6-13.6,19.4-14.5,36.8-3.9c-16.8,13.3-36.8,26.5-42.4,50.8c3.1-0.6,6-1.4,7.5-2.4c34.9-15.5,57.1-35.8,80.4-66.8
		c33.9-46.5,21.3-88.1-33.9-106.5c-33.9-11.6-69.7-11.6-103.6-2.9c-22.3,4.8-37.8,8.7-56.2,13.6c-5.8,1.9-10.7,2.9-15.5,4.8
		c2.9-9.7,3.9-13.6,17.4-19.4c65.1-27,131-40.5,199.7-13.4C515.7,44.1,530.2,94.4,499.2,143.8z"/>
	<path class="st0" d="M339.5,311.3c-3.9,51.3-19.4,99.7-42.6,145.2c-2.9,5.8-7.7,10.6-12.6,15.5c42.9-88.6,56.7-174.5,33.1-213.1
		c-14.5,1.9-31.2,3.1-46.6,5c-29,3.9-57.1,0-84.2-9.7c-12.6-3.9-26.1-10.6-36.8-20.3c-21.3-19.4-31-43.6-21.3-73.6
		c7.7-25.2,21.3-44.5,38.7-61c14.5-16.5,32.9-29,53.3-40.7c-15.5,21.3-31.9,41.6-45.5,63.9c-26.1,45.5-12.6,83.3,35.8,103.6
		c25.6,10.2,64.7,13.7,91.5,7.1c-16.5-22.6-41.6-22.6-70.2-23.6c12.6-14.5,25.2-17.4,39.7-14.5c30,5.8,52.3,24.2,61,53.2
		C338.5,268.7,340.5,290,339.5,311.3z"/>
	<path class="st0" d="M265,348.1c-10.6-4.8-12.6-14.5-11.6-25.2c0-7.7,0-15.5,0-23.2c-1.9,20.3-1,40.7-23.2,55.2
		c-13.6,8.7-9.7,31,1.9,42.6c11.6,11.6,26.1,10.6,37.8-1c11.6-11.6,12.6-30,1.9-42.6C269.8,351.9,267.9,349,265,348.1z M250.4,394.5
		c-11.6,0-22.3-10.6-22.3-22.3s10.6-21.3,22.3-21.3c10.6,0,20.3,9.7,21.3,20.3C272.7,382.9,261.1,394.5,250.4,394.5z"/>
</g>
</svg>
