<?xml version="1.0" encoding="utf-8"?>
<!-- Generator: Adobe Illustrator 23.0.1, SVG Export Plug-In . SVG Version: 6.00 Build 0)  -->
<svg version="1.1" id="coloracmah" xmlns="http://www.w3.org/2000/svg" xmlns:xlink="http://www.w3.org/1999/xlink" x="0px" y="0px"
	 viewBox="0 0 640 480" style="enable-background:new 0 0 640 480;" xml:space="preserve">
<style type="text/css">
	.st0{fill:#101526;}
	.st1{fill:#54211C;}
	.st2{fill:#FFFFFF;}
</style>
<g>
	<g>
		<path class="st0" d="M451,455.5H189c-4.1,0-7.4-3.3-7.4-7.4v-88.7c0-4.1,3.3-7.4,7.4-7.4h262c4.1,0,7.4,3.3,7.4,7.4v88.7
			C458.4,452.2,455.1,455.5,451,455.5z"/>
	</g>
	<g>
		<path id="a_2_" class="st1" d="M528.1,24.5H111.9c-4.1,0-7.4,3.3-7.4,7.4v416.2c0,4.1,3.3,7.4,7.4,7.4h28.8c4.1,0,7.4-3.3,7.4-7.4
			V331.2c0-4.1,3.3-7.4,7.4-7.4h329.1c4.1,0,7.4,3.3,7.4,7.4v116.9c0,4.1,3.3,7.4,7.4,7.4h28.8c4.1,0,7.4-3.3,7.4-7.4V31.9
			C535.5,27.8,532.2,24.5,528.1,24.5z"/>
		<g>
			<path class="st2" d="M293.6,93.4c4.1-7.1,10-12.8,17.7-17.1c7.7-4.3,16-6.5,24.8-6.5c7.5,0,14.8,1.6,21.8,4.8
				c7,3.2,13,7.7,18.1,13.6l-12.2,11.6c-8.3-8.8-17.6-13.1-27.9-13.1c-8.7,0-16.1,3-22.1,9s-9,13.3-9,22.1c0,6.1,1.3,11.5,4,16.2
				c2.6,4.7,6.4,8.4,11.2,11.1s10.2,4,16.1,4c5.1,0,9.7-0.9,13.8-2.8c4.2-1.9,8.8-5.3,13.8-10.3l11.8,12.3
				c-6.8,6.6-13.1,11.2-19.1,13.7s-12.9,3.8-20.6,3.8c-14.2,0-25.8-4.5-34.9-13.5s-13.6-20.6-13.6-34.7
				C287.4,108.6,289.5,100.5,293.6,93.4z"/>
			<polygon class="st2" points="225.7,72.2 243.4,72.2 278.6,163.6 260.5,163.6 253.3,144.8 216,144.8 208.6,163.6 190.5,163.6 			
				"/>
			<polygon class="st2" points="271.5,269.4 261.7,211.7 242.3,269.4 227,269.4 207.7,211.7 197.7,269.4 180.7,269.4 196.5,178 
				213.5,178 234.7,241.8 256.1,178 273,178 288.3,269.4 			"/>
			<polygon class="st2" points="359.7,269.4 352.5,250.6 315.2,250.6 307.8,269.4 289.7,269.4 325,178 342.7,178 377.9,269.4 			"/>
			<polygon class="st2" points="451.9,269.4 434.3,269.4 434.3,229.3 403.8,229.3 403.8,269.4 386.1,269.4 386.1,178 403.8,178 
				403.8,212.5 434.3,212.5 434.3,178 451.9,178 			"/>
		</g>
		<polygon id="a_1_" class="st1" points="234.6,96.4 222.4,127.8 246.8,127.8 		"/>
		<polygon id="a" class="st1" points="321.7,233.6 346.1,233.6 333.9,202.2 		"/>
	</g>
</g>
</svg>
